<svg width="397" height="212" viewBox="0 0 397 212" fill="none" xmlns="http://www.w3.org/2000/svg">
<path d="M28.498 111.814C28.498 115.735 26.9904 118.777 23.9751 120.94C20.9824 123.081 16.7996 124.151 11.4264 124.151C9.86209 124.151 7.92368 123.993 5.61119 123.678C3.32137 123.362 1.45097 122.979 0 122.529V112.422C4.28491 114.315 7.867 115.261 10.7463 115.261C13.5802 115.261 14.9972 114.529 14.9972 113.064C14.9972 112.456 14.6684 111.96 14.011 111.577C13.3535 111.172 11.6305 110.507 8.84187 109.583C5.75855 108.614 3.51408 107.33 2.10845 105.73C0.702815 104.13 0 102.045 0 99.4764C0 95.8935 1.4283 93.0655 4.28491 90.9923C7.16418 88.8967 11.1997 87.8488 16.3915 87.8488C19.4294 87.8488 22.6488 88.2883 26.0495 89.1671V98.868C24.6212 98.2596 23.0569 97.7525 21.3565 97.3469C19.6562 96.9413 18.2279 96.7385 17.0716 96.7385C16.1194 96.7385 15.3599 96.8963 14.7931 97.2117C14.2263 97.5272 13.943 97.9666 13.943 98.53C13.943 99.1835 14.249 99.713 14.8611 100.119C15.4733 100.524 16.6975 101.009 18.5339 101.572C22.0933 102.609 24.6439 103.938 26.1855 105.561C27.7272 107.183 28.498 109.267 28.498 111.814Z" fill="#006FFF"/>
<path d="M79.0327 123.306V103.364C79.0327 101.696 78.7267 100.457 78.1145 99.6454C77.5251 98.8116 76.5502 98.3948 75.1899 98.3948C73.8523 98.3948 72.8094 98.9018 72.0612 99.9158C71.3131 100.907 70.939 102.293 70.939 104.073V123.306H56.4519V103.702C56.4519 100.164 55.239 98.3948 52.8132 98.3948C51.3395 98.3948 50.2286 98.913 49.4805 99.9496C48.7323 100.964 48.3582 102.428 48.3582 104.344V123.306H33.8712V88.6939H48.3582V94.1696H48.4943C49.0384 93.2007 49.8999 92.2204 51.0788 91.229C52.2804 90.2149 53.6293 89.4037 55.1257 88.7953C56.622 88.1643 58.243 87.8488 59.9887 87.8488C62.4599 87.8488 64.5343 88.3333 66.212 89.3023C67.9124 90.2713 69.3293 91.8036 70.4629 93.8992C71.6872 91.9613 73.3195 90.4741 75.3599 89.4375C77.4004 88.3784 79.6675 87.8488 82.1614 87.8488C85.8115 87.8488 88.6114 89.0319 90.5612 91.398C92.5109 93.764 93.4858 97.1779 93.4858 101.64V123.306H79.0327Z" fill="#006FFF"/>
<path d="M119.365 123.306V118.033H119.229C116.917 122.112 113.38 124.151 108.619 124.151C105.332 124.151 102.758 123.182 100.899 121.244C99.0403 119.306 98.1108 116.715 98.1108 113.47C98.1108 106.665 102.316 102.721 110.727 101.64L119.365 100.524C119.365 99.3975 118.855 98.4736 117.835 97.7525C116.815 97.0315 115.443 96.6709 113.72 96.6709C109.821 96.6709 105.706 97.7751 101.375 99.9834V90.6205C103.257 89.8093 105.615 89.1446 108.449 88.6263C111.283 88.108 113.709 87.8488 115.726 87.8488C121.644 87.8488 125.929 89.1108 128.581 91.6346C131.256 94.1358 132.594 98.3272 132.594 104.209V123.306H119.365ZM110.795 111.543C110.795 112.49 111.09 113.267 111.68 113.876C112.292 114.484 113.153 114.788 114.264 114.788C115.783 114.788 117.007 114.225 117.937 113.098C118.889 111.972 119.365 110.529 119.365 108.772V107.453L114.468 108.129C112.02 108.535 110.795 109.673 110.795 111.543Z" fill="#006FFF"/>
<path d="M165.343 101.031C164.799 100.783 164.062 100.558 163.133 100.355C162.203 100.152 161.432 100.051 160.82 100.051C156.036 100.051 153.645 102.8 153.645 108.298V123.306H139.157V0H153.645V94.7781H153.781C154.665 92.5923 155.923 90.936 157.555 89.8093C159.188 88.6601 161.092 88.0855 163.269 88.0855C164.062 88.0855 164.754 88.2207 165.343 88.4911V101.031Z" fill="#006FFF"/>
<path d="M194.079 122.833C193.422 123.148 192.345 123.441 190.848 123.712C189.352 124.005 187.55 124.151 185.441 124.151C181.406 124.151 178.243 123.047 175.953 120.839C173.686 118.63 172.553 115.487 172.553 111.408V98.6652H167.077V88.6939H172.553V81.8999L186.836 77.979V88.6939H194.079V98.6652H186.836V109.042C186.836 112.084 188.048 113.605 190.474 113.605C191.608 113.605 192.809 113.357 194.079 112.862V122.833Z" fill="#006FFF"/>
<path d="M221.047 212V103.566C221.047 100.119 219.72 98.3948 217.068 98.3948C215.776 98.3948 214.789 98.8905 214.109 99.882C213.429 100.851 213.089 102.102 213.089 103.634V123.306H198.602V72.0638H213.089V93.3922H213.225C214.472 91.612 215.98 90.2487 217.748 89.3023C219.539 88.3333 221.455 87.8488 223.495 87.8488C227.259 87.8488 230.127 89.0544 232.099 91.4656C234.072 93.8542 235.058 97.3807 235.058 102.045V212H221.047Z" fill="#006FFF"/>
<path d="M280.321 105.392C280.321 111.228 278.542 115.814 274.982 119.149C271.445 122.484 266.492 124.151 260.121 124.151C253.796 124.151 248.865 122.529 245.328 119.284C241.814 116.016 240.057 111.521 240.057 105.797C240.057 102.124 240.884 98.9356 242.539 96.2315C244.194 93.5274 246.552 91.4543 249.613 90.0121C252.673 88.5699 256.199 87.8488 260.189 87.8488C264.315 87.8488 267.886 88.6037 270.901 90.1135C273.939 91.6233 276.263 93.719 277.873 96.4005C279.505 99.0821 280.321 102.079 280.321 105.392ZM265.63 105.459C265.63 100.75 263.816 98.3948 260.189 98.3948C256.562 98.3948 254.748 100.862 254.748 105.797C254.748 111.003 256.584 113.605 260.257 113.605C263.839 113.605 265.63 110.89 265.63 105.459Z" fill="#006FFF"/>
<path d="M307.901 123.306V117.966H307.765C306.564 119.611 305.475 120.816 304.5 121.582C303.548 122.348 302.46 122.968 301.236 123.441C300.034 123.915 298.629 124.151 297.019 124.151C293.21 124.151 290.308 122.923 288.313 120.467C286.318 118.011 285.32 114.383 285.32 109.583V88.6939H299.807V108.501C299.807 111.904 301.088 113.605 303.65 113.605C305.056 113.605 306.11 113.143 306.813 112.219C307.538 111.295 307.901 109.989 307.901 108.298V88.6939H322.388V123.306H307.901Z" fill="#006FFF"/>
<path d="M357.62 111.814C357.62 115.735 356.112 118.777 353.097 120.94C350.104 123.081 345.921 124.151 340.548 124.151C338.984 124.151 337.045 123.993 334.733 123.678C332.443 123.362 330.573 122.979 329.122 122.529V112.422C333.407 114.315 336.989 115.261 339.868 115.261C342.702 115.261 344.119 114.529 344.119 113.064C344.119 112.456 343.79 111.96 343.133 111.577C342.475 111.172 340.752 110.507 337.964 109.583C334.88 108.614 332.636 107.33 331.23 105.73C329.824 104.13 329.122 102.045 329.122 99.4764C329.122 95.8935 330.55 93.0655 333.407 90.9923C336.286 88.8967 340.321 87.8488 345.513 87.8488C348.551 87.8488 351.77 88.2883 355.171 89.1671V98.868C353.743 98.2596 352.179 97.7525 350.478 97.3469C348.778 96.9413 347.349 96.7385 346.193 96.7385C345.241 96.7385 344.482 96.8963 343.915 97.2117C343.348 97.5272 343.065 97.9666 343.065 98.53C343.065 99.1835 343.371 99.713 343.983 100.119C344.595 100.524 345.819 101.009 347.656 101.572C351.215 102.609 353.766 103.938 355.307 105.561C356.849 107.183 357.62 109.267 357.62 111.814Z" fill="#006FFF"/>
<path d="M375.473 110.09C375.723 111.577 376.584 112.749 378.058 113.605C379.532 114.439 381.481 114.856 383.907 114.856C387.285 114.856 390.482 114.214 393.497 112.929V122.055C389.983 123.453 385.721 124.151 380.711 124.151C374.635 124.151 369.908 122.608 366.53 119.52C363.151 116.433 361.462 112.186 361.462 106.777C361.462 103.059 362.199 99.7806 363.673 96.9413C365.169 94.102 367.368 91.8824 370.27 90.2825C373.195 88.6601 376.414 87.8488 379.928 87.8488C383.533 87.8488 386.616 88.5474 389.178 89.9445C391.74 91.3416 393.679 93.3021 394.994 95.8259C396.331 98.3497 397 101.302 397 104.682V110.09H375.473ZM384.179 102.552C384.179 98.5638 382.74 96.5695 379.86 96.5695C378.659 96.5695 377.65 97.1216 376.834 98.2258C376.018 99.3074 375.541 100.75 375.405 102.552H384.179Z" fill="#006FFF"/>
</svg>
