<svg width="149" height="148" viewBox="0 0 149 148" fill="none" xmlns="http://www.w3.org/2000/svg">
<g opacity="0.15">
<path d="M65.5702 23.125C65.5702 35.8966 55.2168 46.25 42.4452 46.25C29.6736 46.25 19.3202 35.8966 19.3202 23.125C19.3202 10.3534 29.6736 0 42.4452 0C55.2168 0 65.5702 10.3534 65.5702 23.125Z" fill="#006FFF"/>
<path d="M104.653 60.6134C102.872 59.7231 100.722 60.0721 99.3141 61.4798L64.9952 105.049L40.4 79.4019C38.5656 78.179 36.123 78.4208 34.5641 79.9798L0.834473 120.25V138.75C0.834473 143.859 4.97584 148 10.0845 148H139.584C144.693 148 148.834 143.859 148.834 138.75V97.1251L104.653 60.6134Z" fill="#006FFF"/>
</g>
</svg>
